<mxfile host="app.diagrams.net" modified="2021-11-25T20:37:52.846Z" agent="5.0 (Windows NT 10.0; Win64; x64) AppleWebKit/537.36 (KHTML, like Gecko) Chrome/96.0.4664.45 Safari/537.36" etag="7_McoauZDeCNVdW5VmgA" version="15.8.3" type="github">
  <diagram id="F2uZlvy4hfClbj3k6jfk" name="Page-1">
    <mxGraphModel dx="1038" dy="537" grid="1" gridSize="10" guides="1" tooltips="1" connect="1" arrows="1" fold="1" page="1" pageScale="1" pageWidth="827" pageHeight="1169" math="0" shadow="0">
      <root>
        <mxCell id="0" />
        <mxCell id="1" parent="0" />
        <mxCell id="PLTZG-wTLj4Dj8tcine4-11" value="&lt;b&gt;Initializing state&lt;/b&gt;" style="html=1;align=center;verticalAlign=top;rounded=1;absoluteArcSize=1;arcSize=10;dashed=0;labelBackgroundColor=default;fontColor=#000000;strokeColor=#000000;fillColor=#FFFFFF;" vertex="1" parent="1">
          <mxGeometry x="110" y="85" width="120" height="80" as="geometry" />
        </mxCell>
        <mxCell id="PLTZG-wTLj4Dj8tcine4-10" value="&lt;b&gt;Processing state&lt;/b&gt;" style="html=1;align=center;verticalAlign=top;rounded=1;absoluteArcSize=1;arcSize=10;dashed=0;labelBackgroundColor=default;fontColor=#000000;strokeColor=#000000;fillColor=#FFFFFF;" vertex="1" parent="1">
          <mxGeometry x="350" y="85" width="270" height="300" as="geometry" />
        </mxCell>
        <mxCell id="ESeuDQJYDt2gdoZuYAMs-1" value="" style="ellipse;html=1;shape=startState;fillColor=#000000;strokeColor=#ff0000;" parent="1" vertex="1">
          <mxGeometry x="40" y="120" width="30" height="30" as="geometry" />
        </mxCell>
        <mxCell id="ESeuDQJYDt2gdoZuYAMs-2" value="" style="edgeStyle=orthogonalEdgeStyle;html=1;verticalAlign=bottom;endArrow=open;endSize=8;strokeColor=#000000;rounded=0;" parent="1" source="ESeuDQJYDt2gdoZuYAMs-1" edge="1">
          <mxGeometry relative="1" as="geometry">
            <mxPoint x="110" y="136" as="targetPoint" />
            <Array as="points">
              <mxPoint x="110" y="136" />
              <mxPoint x="110" y="136" />
            </Array>
          </mxGeometry>
        </mxCell>
        <mxCell id="ESeuDQJYDt2gdoZuYAMs-6" value="" style="edgeStyle=orthogonalEdgeStyle;html=1;verticalAlign=bottom;endArrow=open;endSize=8;strokeColor=#000000;rounded=0;exitX=0.952;exitY=0.619;exitDx=0;exitDy=0;exitPerimeter=0;" parent="1" edge="1" source="PLTZG-wTLj4Dj8tcine4-11">
          <mxGeometry relative="1" as="geometry">
            <mxPoint x="350" y="135" as="targetPoint" />
            <mxPoint x="380" y="135" as="sourcePoint" />
            <Array as="points" />
          </mxGeometry>
        </mxCell>
        <mxCell id="PLTZG-wTLj4Dj8tcine4-3" value="&lt;span style=&quot;background-color: rgb(248 , 249 , 250)&quot;&gt;Calculating distance from input vector and BMU&lt;/span&gt;" style="rounded=1;whiteSpace=wrap;html=1;arcSize=40;fontColor=#000000;fillColor=#FFFFFF;strokeColor=#000000;labelBackgroundColor=default;" vertex="1" parent="1">
          <mxGeometry x="360" y="120" width="250" height="50" as="geometry" />
        </mxCell>
        <mxCell id="PLTZG-wTLj4Dj8tcine4-5" value="&lt;span style=&quot;background-color: rgb(248 , 249 , 250)&quot;&gt;Adjusting weights&lt;/span&gt;" style="rounded=1;whiteSpace=wrap;html=1;arcSize=40;fontColor=#000000;fillColor=#FFFFFF;strokeColor=#000000;labelBackgroundColor=default;" vertex="1" parent="1">
          <mxGeometry x="390" y="240" width="190" height="40" as="geometry" />
        </mxCell>
        <mxCell id="PLTZG-wTLj4Dj8tcine4-6" value="&lt;span style=&quot;background-color: rgb(248 , 249 , 250)&quot;&gt;Writing my features to a file&amp;nbsp;&lt;/span&gt;" style="rounded=1;whiteSpace=wrap;html=1;arcSize=40;fontColor=#000000;fillColor=#FFFFFF;strokeColor=#000000;labelBackgroundColor=default;" vertex="1" parent="1">
          <mxGeometry x="390" y="340" width="190" height="40" as="geometry" />
        </mxCell>
        <mxCell id="PLTZG-wTLj4Dj8tcine4-7" value="" style="edgeStyle=orthogonalEdgeStyle;html=1;verticalAlign=bottom;endArrow=open;endSize=8;strokeColor=#000000;rounded=0;" edge="1" parent="1">
          <mxGeometry relative="1" as="geometry">
            <mxPoint x="484.5" y="240" as="targetPoint" />
            <mxPoint x="484.5" y="170" as="sourcePoint" />
            <Array as="points" />
          </mxGeometry>
        </mxCell>
        <mxCell id="PLTZG-wTLj4Dj8tcine4-8" value="" style="edgeStyle=orthogonalEdgeStyle;html=1;verticalAlign=bottom;endArrow=open;endSize=8;strokeColor=#000000;rounded=0;" edge="1" parent="1">
          <mxGeometry relative="1" as="geometry">
            <mxPoint x="485" y="340" as="targetPoint" />
            <mxPoint x="484.5" y="280" as="sourcePoint" />
            <Array as="points">
              <mxPoint x="485" y="340" />
              <mxPoint x="485" y="340" />
            </Array>
          </mxGeometry>
        </mxCell>
        <mxCell id="PLTZG-wTLj4Dj8tcine4-9" value="" style="edgeStyle=orthogonalEdgeStyle;html=1;verticalAlign=bottom;endArrow=open;endSize=8;strokeColor=#000000;rounded=0;exitX=0.914;exitY=0.02;exitDx=0;exitDy=0;exitPerimeter=0;" edge="1" parent="1" source="PLTZG-wTLj4Dj8tcine4-6">
          <mxGeometry relative="1" as="geometry">
            <mxPoint x="595" y="170" as="targetPoint" />
            <mxPoint x="580" y="340" as="sourcePoint" />
            <Array as="points">
              <mxPoint x="595" y="341" />
            </Array>
          </mxGeometry>
        </mxCell>
        <mxCell id="PLTZG-wTLj4Dj8tcine4-18" value="&lt;span style=&quot;background-color: rgb(248 , 249 , 250)&quot;&gt;Creating&lt;/span&gt;" style="rounded=1;whiteSpace=wrap;html=1;arcSize=40;fontColor=#000000;fillColor=#FFFFFF;strokeColor=#000000;labelBackgroundColor=default;" vertex="1" parent="1">
          <mxGeometry x="125" y="120" width="90" height="35" as="geometry" />
        </mxCell>
        <mxCell id="PLTZG-wTLj4Dj8tcine4-19" value="&lt;b&gt;Creation complete&lt;/b&gt;" style="text;html=1;strokeColor=none;fillColor=none;align=center;verticalAlign=middle;whiteSpace=wrap;rounded=0;labelBackgroundColor=default;fontColor=#000000;" vertex="1" parent="1">
          <mxGeometry x="250" y="90" width="60" height="30" as="geometry" />
        </mxCell>
      </root>
    </mxGraphModel>
  </diagram>
</mxfile>
